<svg xmlns="http://www.w3.org/2000/svg" xmlns:xlink="http://www.w3.org/1999/xlink" id="Layer_1" x="0" y="0" version="1.1" viewBox="0 0 128 128" style="enable-background:new 0 0 128 128" xml:space="preserve"><style type="text/css">.st0{fill:url(#SVGID_1_)}.st1{opacity:.2}.st2{fill:#fff}</style><linearGradient id="SVGID_1_" x1="11.862" x2="116.138" y1="11.862" y2="116.138" gradientUnits="userSpaceOnUse"><stop offset="0" style="stop-color:#ddd"/><stop offset="1" style="stop-color:#bcbcbc"/></linearGradient><path d="M87.5,128h-47C18.1,128,0,109.9,0,87.5v-47C0,18.1,18.1,0,40.5,0h47C109.9,0,128,18.1,128,40.5v47	C128,109.9,109.9,128,87.5,128z" class="st0"/><g><g class="st1"><polygon points="61.5 89.6 66.5 70.6 78.4 66.2 81.4 55 81.3 54.8 69.6 59.1 78 27.2 54 27.2 42.9 68.8 33.7 72.2 30.6 83.7 39.9 80.3 33.3 104.8 97.3 104.8 101.4 89.6"/></g><g><polygon points="59.5 87.6 64.5 68.6 76.4 64.2 79.4 53 79.3 52.8 67.6 57.1 76 25.2 52 25.2 40.9 66.8 31.7 70.2 28.6 81.7 37.9 78.3 31.3 102.8 95.3 102.8 99.4 87.6" class="st2"/></g></g></svg>