<svg xmlns="http://www.w3.org/2000/svg" xmlns:svgjs="http://svgjs.dev/svgjs" xmlns:xlink="http://www.w3.org/1999/xlink" version="1.1" viewBox="0 0 800 800"><defs><symbol id="bbburst-shape-1" viewBox="0 0 194 167"><path d="m97 0 96.129 166.5H.871L97 0Z"/></symbol><symbol id="bbburst-shape-2" viewBox="0 0 126 115"><path d="m63 0 62.77 43.877-23.976 70.996H24.206L.23 43.877 63 0Z"/></symbol><symbol id="bbburst-shape-4" viewBox="0 0 149 143"><path d="M71.647 2.781c.898-2.764 4.808-2.764 5.706 0l15.445 47.534a3 3 0 0 0 2.853 2.073h49.98c2.906 0 4.115 3.719 1.764 5.427L106.96 87.193a2.999 2.999 0 0 0-1.09 3.354l15.445 47.534c.898 2.764-2.266 5.062-4.617 3.354l-40.435-29.378a3 3 0 0 0-3.526 0l-40.435 29.378c-2.351 1.708-5.515-.59-4.617-3.354L43.13 90.547a3 3 0 0 0-1.09-3.354L1.605 57.815c-2.35-1.708-1.142-5.427 1.764-5.427h49.98a3 3 0 0 0 2.853-2.073L71.647 2.781Z"/></symbol><symbol id="bbburst-shape-9" viewBox="0 0 182 172"><path stroke-width="22" d="M13.5809 69.845 91 13.5967l77.419 56.2483-29.571 91.012H43.1524L13.5809 69.845Z"/></symbol><symbol id="bbburst-shape-10" viewBox="0 0 145 145"><circle cx="72.5" cy="72.5" r="61.5" fill="none" stroke-width="22"/></symbol><symbol id="bbburst-shape-11" viewBox="0 0 194 167"><path stroke-width="11" d="M10.398 161 97 11l86.603 150H10.397Z"/></symbol><symbol id="bbburst-shape-13" viewBox="0 0 159 159"><path stroke-width="22" d="M11 11h137v137H11z"/></symbol><symbol id="bbburst-shape-14" viewBox="0 0 185 109"><path stroke-linecap="round" stroke-width="33" d="M168 16.5C168 58.1975 134.197 92 92.5 92 50.8025 92 17 58.1975 17 16.5"/></symbol></defs><use width="13.978" fill="#ff5d9f" opacity=".917" transform="matrix(0.9979658550593206,0.06375070302137219,-0.06375070302137219,0.9979658550593206,408.11738791100197,-35.49800655628394)" xlink:href="#bbburst-shape-4"/><use width="40.426" fill="none" stroke="#ff8e6f" opacity=".361" transform="matrix(0.9888823810210652,-0.14869982012803112,0.14869982012803112,0.9888823810210652,492.9980826736206,-222.69229865236252)" xlink:href="#bbburst-shape-13"/><use width="23.827" fill="none" stroke="#ff8e6f" opacity=".748" transform="matrix(0.796569481206084,-0.6045469887536207,0.6045469887536207,0.796569481206084,93.30541136989308,-10.236899954296462)" xlink:href="#bbburst-shape-10"/><use width="47.195" fill="#e354d4" opacity=".131" transform="matrix(0.7245131806981144,-0.6892609455022832,0.6892609455022832,0.7245131806981144,457.8782249362372,-46.84565606059434)" xlink:href="#bbburst-shape-1"/><use width="17.087" fill="#ff8e6f" opacity=".742" transform="matrix(0.8955934596521412,-0.44487341461173935,0.44487341461173935,0.8955934596521412,309.94695237916636,111.19232278149207)" xlink:href="#bbburst-shape-4"/><use width="38.242" fill="#ff5d9f" opacity=".297" transform="matrix(0.9154379410775411,0.4024591607054216,-0.4024591607054216,0.9154379410775411,787.2717425101584,227.41529046770398)" xlink:href="#bbburst-shape-4"/><use width="18.699" fill="none" stroke="#ff8e6f" opacity=".714" transform="matrix(0.9856021352323313,-0.16908113740293246,0.16908113740293246,0.9856021352323313,394.73451579510487,114.11404843100831)" xlink:href="#bbburst-shape-14"/><use width="23.891" fill="none" stroke="#ff5d9f" opacity=".622" transform="matrix(0.7227237259253694,0.6911370457330092,-0.6911370457330092,0.7227237259253694,824.4052852632728,168.75746848337582)" xlink:href="#bbburst-shape-9"/><use width="19.934" fill="#e354d4" opacity=".657" transform="matrix(0.9664235187105404,-0.25695443658971456,0.25695443658971456,0.9664235187105404,281.57090478836176,170.3883938519491)" xlink:href="#bbburst-shape-2"/><use width="30.291" fill="none" stroke="#5c67f7" opacity=".171" transform="matrix(0.8242581925810355,-0.5662141220095491,0.5662141220095491,0.8242581925810355,-206.2899107590167,12.596235914641284)" xlink:href="#bbburst-shape-9"/><use width="28.924" fill="none" stroke="#5c67f7" opacity=".505" transform="matrix(0.927703210797491,-0.37331856728004564,0.37331856728004564,0.927703210797491,451.95893088458706,-25.085200968820345)" xlink:href="#bbburst-shape-11"/><use width="35.776" fill="none" stroke="#5c67f7" opacity=".452" transform="matrix(0.9779769171198535,-0.20871307956318258,0.20871307956318258,0.9779769171198535,52.424673174076275,20.572714637791307)" xlink:href="#bbburst-shape-13"/><use width="27.371" fill="none" stroke="#ff5d9f" opacity=".448" transform="matrix(0.8854459089182054,0.46474244736199105,-0.46474244736199105,0.8854459089182054,526.6779110092386,283.04847781544674)" xlink:href="#bbburst-shape-11"/><use width="26.861" fill="none" stroke="#ff5d9f" opacity=".313" transform="matrix(0.813371120227572,0.5817451510582144,-0.5817451510582144,0.813371120227572,722.1072220644187,-226.0271690909119)" xlink:href="#bbburst-shape-11"/><use width="14.515" fill="none" stroke="#e354d4" opacity=".89" transform="matrix(0.9715867227721557,-0.23668384003320173,0.23668384003320173,0.9715867227721557,250.8270073225417,-0.5972168954274935)" xlink:href="#bbburst-shape-11"/><use width="18.559" fill="#ff8e6f" opacity=".843" transform="matrix(0.7433579083335146,0.6688938780688775,-0.6688938780688775,0.7433579083335146,610.7547025105629,46.18604066669491)" xlink:href="#bbburst-shape-4"/><use width="13.955" fill="none" stroke="#ff5d9f" opacity=".828" transform="matrix(0.9960307490244056,-0.08900981405374102,0.08900981405374102,0.9960307490244056,396.2256958900202,69.23443483882102)" xlink:href="#bbburst-shape-14"/><use width="25.218" fill="none" stroke="#ff5d9f" opacity=".165" transform="matrix(0.7077432441084375,-0.7064697448715441,0.7064697448715441,0.7077432441084375,191.86017265225263,-240.59393725829398)" xlink:href="#bbburst-shape-14"/><use width="27.65" fill="none" stroke="#ff8e6f" opacity=".58" transform="matrix(0.8433645497238024,-0.5373418244182824,0.5373418244182824,0.8433645497238024,46.96809991510369,210.2194431791762)" xlink:href="#bbburst-shape-11"/><use width="29.114" fill="none" stroke="#ff5d9f" opacity=".458" transform="matrix(0.9498014807323435,0.31285323587690084,-0.31285323587690084,0.9498014807323435,315.8494395906844,161.1077606772934)" xlink:href="#bbburst-shape-9"/><use width="33.588" fill="none" stroke="#ff5d9f" opacity=".332" transform="matrix(0.9877423177878003,0.15609328509319048,-0.15609328509319048,0.9877423177878003,242.90864400497418,224.32509421249955)" xlink:href="#bbburst-shape-13"/><use width="39.734" fill="#e354d4" opacity=".31" transform="matrix(0.8707744463466888,0.49168268587536984,-0.49168268587536984,0.8707744463466888,868.9496473745422,154.5223579550197)" xlink:href="#bbburst-shape-2"/><use width="22.482" fill="#ff5d9f" opacity=".748" transform="matrix(0.9985140346927142,-0.054495160534466416,0.054495160534466416,0.9985140346927142,270.9398424376388,-59.195735396362295)" xlink:href="#bbburst-shape-4"/><use width="25.871" fill="#ff5d9f" opacity=".604" transform="matrix(0.9239558449978835,0.38249914574315974,-0.38249914574315974,0.9239558449978835,382.78060598103326,107.38667442496177)" xlink:href="#bbburst-shape-1"/><use width="36.367" fill="none" stroke="#9e5cf7" opacity="-.085" transform="matrix(0.9940946928281701,0.10851608954835341,-0.10851608954835341,0.9940946928281701,770.9073026990798,345.06864538508233)" xlink:href="#bbburst-shape-11"/><use width="17.449" fill="none" stroke="#ff8e6f" opacity=".77" transform="matrix(0.9084058774489656,0.41808941844559394,-0.41808941844559394,0.9084058774489656,466.6566603474782,79.45835656291302)" xlink:href="#bbburst-shape-14"/><use width="20.463" fill="none" stroke="#5c67f7" opacity=".721" transform="matrix(0.9984276708958448,-0.056055204838610435,0.056055204838610435,0.9984276708958448,370.3002509703598,-124.56527753321222)" xlink:href="#bbburst-shape-9"/><use width="14.241" fill="none" stroke="#ff5d9f" opacity=".942" transform="matrix(0.9148777726819993,-0.4037309265493838,0.4037309265493838,0.9148777726819993,209.33452502141054,50.27470499386425)" xlink:href="#bbburst-shape-13"/><use width="25.498" fill="none" stroke="#9e5cf7" opacity=".664" transform="matrix(0.7804958351070009,0.6251609803727559,-0.6251609803727559,0.7804958351070009,715.262586409229,-51.50845729770822)" xlink:href="#bbburst-shape-11"/><use width="40.865" fill="none" stroke="#ff8e6f" opacity=".191" transform="matrix(0.8167664073573695,-0.5769684877118815,0.5769684877118815,0.8167664073573695,511.6331385653227,25.429475436362168)" xlink:href="#bbburst-shape-13"/><use width="22.863" fill="none" stroke="#ff5d9f" opacity=".594" transform="matrix(0.9880487456703326,0.15414174054837437,-0.15414174054837437,0.9880487456703326,469.63301337223095,-178.85040721462184)" xlink:href="#bbburst-shape-9"/><use width="23.405" fill="none" stroke="#ff5d9f" opacity=".436" transform="matrix(0.9631928676822576,0.26881127142668126,-0.26881127142668126,0.9631928676822576,538.7394149436284,-238.75421443734072)" xlink:href="#bbburst-shape-11"/><use width="35.108" fill="none" stroke="#ff5d9f" opacity=".303" transform="matrix(0.743100470477501,0.6691798642936865,-0.6691798642936865,0.743100470477501,352.9281617590748,176.04005331407836)" xlink:href="#bbburst-shape-13"/><use width="41.957" fill="none" stroke="#e354d4" opacity=".086" transform="matrix(0.999560846125576,-0.02963300343742465,0.02963300343742465,0.999560846125576,720.5602979728459,210.45945917379004)" xlink:href="#bbburst-shape-11"/><use width="28.404" fill="#ff5d9f" opacity=".174" transform="matrix(0.7525517214072868,-0.6585331476903266,0.6585331476903266,0.7525517214072868,-241.0173228393715,168.59846751377347)" xlink:href="#bbburst-shape-1"/><use width="12.494" fill="none" stroke="#ff5d9f" opacity=".873" transform="matrix(0.9967885746866261,-0.08007832025089263,0.08007832025089263,0.9967885746866261,408.3063323220169,-31.178334412476147)" xlink:href="#bbburst-shape-14"/><use width="13.174" fill="none" stroke="#9e5cf7" opacity=".865" transform="matrix(0.890840572611329,0.45431605099260963,-0.45431605099260963,0.890840572611329,601.032629799093,-14.687258365274545)" xlink:href="#bbburst-shape-14"/><use width="25.728" fill="none" stroke="#ff8e6f" opacity=".634" transform="matrix(0.9988531598591203,-0.0478786490980133,0.0478786490980133,0.9988531598591203,532.7673003170921,-0.09231607454034929)" xlink:href="#bbburst-shape-10"/><use width="42.48" fill="#ff8e6f" opacity=".125" transform="matrix(0.9235934937984908,0.3833732622563775,-0.3833732622563775,0.9235934937984908,726.1304571145531,-321.266221845384)" xlink:href="#bbburst-shape-2"/><use width="31.553" fill="none" stroke="#ff8e6f" opacity=".532" transform="matrix(0.8734706951500063,-0.48687672435038915,0.48687672435038915,0.8734706951500063,210.95083029629038,267.65108868136656)" xlink:href="#bbburst-shape-9"/><use width="37.079" fill="none" stroke="#ff5d9f" opacity="-.079" transform="matrix(0.9280954474671055,-0.3723423698571428,0.3723423698571428,0.9280954474671055,-126.69486098445638,360.8484315216794)" xlink:href="#bbburst-shape-11"/><use width="23.588" fill="none" stroke="#ff8e6f" opacity=".687" transform="matrix(0.9454997783751896,-0.3256227404412465,0.3256227404412465,0.9454997783751896,120.76836235878474,-4.388497002664792)" xlink:href="#bbburst-shape-10"/><use width="22.898" fill="none" stroke="#e354d4" opacity=".64" transform="matrix(0.7601142084923841,0.6497894967202813,-0.6497894967202813,0.7601142084923841,546.170757651907,-34.64096656114111)" xlink:href="#bbburst-shape-11"/><use width="19.335" fill="none" stroke="#9e5cf7" opacity=".731" transform="matrix(0.8651153600787762,0.5015729396167316,-0.5015729396167316,0.8651153600787762,618.0283100326067,167.4234810122477)" xlink:href="#bbburst-shape-14"/><use width="35.228" fill="none" stroke="#e354d4" opacity=".316" transform="matrix(0.9465709789424465,-0.3224955531847511,0.3224955531847511,0.9465709789424465,18.524314820243774,-171.14000418724197)" xlink:href="#bbburst-shape-9"/><use width="14.181" fill="#9e5cf7" opacity=".979" transform="matrix(0.7965332593882378,-0.6045947127525598,0.6045947127525598,0.7965332593882378,158.3588051952304,78.43767428181343)" xlink:href="#bbburst-shape-1"/><use width="30.265" fill="none" stroke="#ff8e6f" opacity=".472" transform="matrix(0.9939346109047946,0.10997267499490293,-0.10997267499490293,0.9939346109047946,629.7952756881405,128.06408667646747)" xlink:href="#bbburst-shape-14"/><use width="30.882" fill="none" stroke="#ff5d9f" opacity=".262" transform="matrix(0.9993269342750973,-0.03668348991488182,0.03668348991488182,0.9993269342750973,65.46178494593867,-132.8319186651471)" xlink:href="#bbburst-shape-11"/><use width="26.074" fill="#e354d4" opacity="-.007" transform="matrix(0.9549931816176458,-0.2966277516750687,0.2966277516750687,0.9549931816176458,-3.8497370133859192,383.7295092015908)" xlink:href="#bbburst-shape-4"/><use width="19.836" fill="none" stroke="#ff8e6f" opacity=".705" transform="matrix(0.8611803719687483,0.5082994854765922,-0.5082994854765922,0.8611803719687483,464.96834319037487,77.56353882450088)" xlink:href="#bbburst-shape-14"/><use width="33.011" fill="none" stroke="#5c67f7" opacity=".452" transform="matrix(0.9897988360671236,0.14247197661353364,-0.14247197661353364,0.9897988360671236,579.8482628396677,205.31074922952956)" xlink:href="#bbburst-shape-9"/><use width="27.201" fill="none" stroke="#e354d4" opacity="-.048" transform="matrix(0.9988437801818516,-0.048073930482423824,0.048073930482423824,0.9988437801818516,671.5751079910457,-359.04867634196376)" xlink:href="#bbburst-shape-10"/><use width="28.739" fill="#ff5d9f" opacity=".636" transform="matrix(0.9448341942097277,-0.32754899702495577,0.32754899702495577,0.9448341942097277,212.19968918577607,-131.33143433402233)" xlink:href="#bbburst-shape-2"/><use width="30.149" fill="none" stroke="#ff5d9f" opacity=".523" transform="matrix(0.8935627461759398,-0.4489383238781393,0.4489383238781393,0.8935627461759398,306.8643638667711,-141.13512577777956)" xlink:href="#bbburst-shape-11"/><use width="28.039" fill="none" stroke="#ff8e6f" opacity="-.04" transform="matrix(0.9715519491320023,0.23682654018882102,-0.23682654018882102,0.9715519491320023,842.7625972621033,-289.0098181332709)" xlink:href="#bbburst-shape-9"/><use width="29.599" fill="none" stroke="#e354d4" opacity=".464" transform="matrix(0.8707401351395276,-0.4917434463795092,0.4917434463795092,0.8707401351395276,27.617056655304197,-119.71327700360075)" xlink:href="#bbburst-shape-11"/><use width="32.162" fill="none" stroke="#ff8e6f" opacity=".094" transform="matrix(0.9976144756427833,-0.06903157239969714,0.06903157239969714,0.9976144756427833,-1.9930476754996747,196.23666789729657)" xlink:href="#bbburst-shape-14"/><use width="14.676" fill="#9e5cf7" opacity=".861" transform="matrix(0.8505153055607386,-0.5259502970879695,0.5259502970879695,0.8505153055607386,126.51844940349429,90.14904475057313)" xlink:href="#bbburst-shape-1"/><use width="22.398" fill="#ff5d9f" opacity=".589" transform="matrix(0.8147697042983266,0.5797847263921475,-0.5797847263921475,0.8147697042983266,465.01958815329317,-29.037358486996993)" xlink:href="#bbburst-shape-1"/><use width="29.008" fill="none" stroke="#9e5cf7" opacity=".045" transform="matrix(0.9802391586415029,0.19781605563199006,-0.19781605563199006,0.9802391586415029,227.07685926659076,-353.21492204418115)" xlink:href="#bbburst-shape-9"/><use width="29.447" fill="none" stroke="#5c67f7" opacity=".475" transform="matrix(0.9998913069778345,-0.014743616590170757,0.014743616590170757,0.9998913069778345,612.2842128900552,39.07438538556215)" xlink:href="#bbburst-shape-10"/><use width="14.284" fill="none" stroke="#ff5d9f" opacity=".806" transform="matrix(0.718406577929643,0.695623453304602,-0.695623453304602,0.718406577929643,620.0998641496717,176.84781714819832)" xlink:href="#bbburst-shape-10"/><use width="31.251" fill="none" stroke="#9e5cf7" opacity=".244" transform="matrix(0.7622872427875215,0.64723887358795,-0.64723887358795,0.7622872427875215,455.8855871122806,-196.54105707852307)" xlink:href="#bbburst-shape-13"/><use width="25.999" fill="#9e5cf7" opacity=".291" transform="matrix(0.7777911314692149,-0.6285228363455369,0.6285228363455369,0.7777911314692149,-6.648471435491132,381.0686881899449)" xlink:href="#bbburst-shape-2"/><use width="18.045" fill="none" stroke="#9e5cf7" opacity=".827" transform="matrix(0.9767114842498134,-0.2145569307538833,0.2145569307538833,0.9767114842498134,305.9965768238283,89.23447815783175)" xlink:href="#bbburst-shape-13"/><use width="16.684" fill="none" stroke="#ff5d9f" opacity=".676" transform="matrix(0.7305758189349844,-0.682831584497581,0.682831584497581,0.7305758189349844,53.90557986061583,243.17552498995707)" xlink:href="#bbburst-shape-10"/><use width="19.155" fill="none" stroke="#ff8e6f" opacity=".787" transform="matrix(0.8939741355381061,-0.44811856130816086,0.44811856130816086,0.8939741355381061,304.30669006830146,19.97705159318963)" xlink:href="#bbburst-shape-10"/><use width="34.998" fill="none" stroke="#e354d4" opacity=".235" transform="matrix(0.9694532683463136,0.2452760903403561,-0.2452760903403561,0.9694532683463136,466.72862628545136,-336.4003459297039)" xlink:href="#bbburst-shape-9"/><use width="31.4" fill="none" stroke="#e354d4" opacity=".277" transform="matrix(0.8390649236167065,0.5440312986916198,-0.5440312986916198,0.8390649236167065,327.8144383722224,227.06138391263278)" xlink:href="#bbburst-shape-13"/><use width="15.588" fill="none" stroke="#ff8e6f" opacity=".925" transform="matrix(0.9661991684330746,0.2577967550595527,-0.2577967550595527,0.9661991684330746,511.00781804529163,41.30870465348005)" xlink:href="#bbburst-shape-13"/><use width="15.959" fill="#ff5d9f" opacity=".801" transform="matrix(0.8305022984889218,-0.5570151992581692,0.5570151992581692,0.8305022984889218,81.25462160199251,66.18114311959243)" xlink:href="#bbburst-shape-2"/><use width="28.389" fill="none" stroke="#e354d4" opacity=".459" transform="matrix(0.8812448266572224,-0.4726600845109327,0.4726600845109327,0.8812448266572224,-30.804854202673027,136.02330272620338)" xlink:href="#bbburst-shape-11"/><use width="29.565" fill="none" stroke="#ff5d9f" opacity=".351" transform="matrix(0.989916290818289,0.14165358157336005,-0.14165358157336005,0.989916290818289,733.5125809338923,-18.324754623618617)" xlink:href="#bbburst-shape-13"/><use width="42.816" fill="none" stroke="#5c67f7" opacity=".122" transform="matrix(0.848965490329246,0.5284482909708603,-0.5284482909708603,0.848965490329246,861.3679513292295,339.0282207276449)" xlink:href="#bbburst-shape-13"/><use width="32.795" fill="#5c67f7" opacity=".075" transform="matrix(0.8185332028144225,0.5744592203893706,-0.5744592203893706,0.8185332028144225,820.7738530470668,425.59128478834896)" xlink:href="#bbburst-shape-4"/><use width="29.742" fill="none" stroke="#ff5d9f" opacity=".183" transform="matrix(0.9314010521517482,0.363994615414317,-0.363994615414317,0.9314010521517482,892.5914895895206,92.5487320095313)" xlink:href="#bbburst-shape-10"/><use width="27.603" fill="none" stroke="#9e5cf7" opacity=".382" transform="matrix(0.8644798709580013,0.5026674374856974,-0.5026674374856974,0.8644798709580013,642.7530156428722,319.7960874211645)" xlink:href="#bbburst-shape-9"/><use width="32.224" fill="none" stroke="#9e5cf7" opacity=".447" transform="matrix(0.9275413460585343,0.37372055248798164,-0.37372055248798164,0.9275413460585343,502.7012533095275,-223.891575154866)" xlink:href="#bbburst-shape-10"/><use width="18.04" fill="#e354d4" opacity=".703" transform="matrix(0.9938310176167806,0.11090495220139769,-0.11090495220139769,0.9938310176167806,336.23284933665354,91.054200128574)" xlink:href="#bbburst-shape-4"/><use width="36.375" fill="#ff8e6f" opacity=".077" transform="matrix(0.7306921599871917,-0.6827070875077043,0.6827070875077043,0.7306921599871917,-250.7686360891233,-78.7006835695432)" xlink:href="#bbburst-shape-2"/><use width="39.376" fill="none" stroke="#e354d4" opacity=".162" transform="matrix(0.7882141056771956,0.6154011079056477,-0.6154011079056477,0.7882141056771956,514.0692376545323,-286.0662169695772)" xlink:href="#bbburst-shape-14"/><use width="24.856" fill="none" stroke="#ff5d9f" opacity=".596" transform="matrix(0.9113254011031947,0.41168679029585264,-0.41168679029585264,0.9113254011031947,680.506453832153,159.89500474160667)" xlink:href="#bbburst-shape-11"/><use width="20.8" fill="none" stroke="#9e5cf7" opacity=".78" transform="matrix(0.7700080227616088,-0.6380342035367365,0.6380342035367365,0.7700080227616088,172.37253090367187,6.1986086556023)" xlink:href="#bbburst-shape-9"/><use width="29.029" fill="#9e5cf7" opacity=".546" transform="matrix(0.999882842347528,-0.015306912785682882,0.015306912785682882,0.999882842347528,179.72132848621928,-42.95301977111734)" xlink:href="#bbburst-shape-4"/><use width="15.858" fill="none" stroke="#5c67f7" opacity=".849" transform="matrix(0.8178893995465152,-0.5753754688109678,0.5753754688109678,0.8178893995465152,223.24829106383226,109.30112455562698)" xlink:href="#bbburst-shape-9"/><use width="23.603" fill="none" stroke="#ff5d9f" opacity=".304" transform="matrix(0.9923850747237571,0.12317411848892192,-0.12317411848892192,0.9923850747237571,384.34264846824834,310.41730160246254)" xlink:href="#bbburst-shape-13"/><use width="41.411" fill="none" stroke="#ff5d9f" opacity=".188" transform="matrix(0.83297938956642,0.5533040182011643,-0.5533040182011643,0.83297938956642,687.9977472477542,410.9708303807452)" xlink:href="#bbburst-shape-14"/><use width="31.114" fill="none" stroke="#5c67f7" opacity=".53" transform="matrix(0.793100785426119,0.6090904236289331,-0.6090904236289331,0.793100785426119,793.7377640447017,-62.1609808586191)" xlink:href="#bbburst-shape-9"/><use width="43.301" fill="none" stroke="#ff5d9f" opacity=".195" transform="matrix(0.8494795148331694,-0.527621601035063,0.527621601035063,0.8494795148331694,435.20203339654154,-175.8908336890196)" xlink:href="#bbburst-shape-10"/><use width="19.462" fill="#ff8e6f" opacity=".758" transform="matrix(0.9898485388562235,-0.14212624713331268,0.14212624713331268,0.9898485388562235,304.62017489096286,110.34411893916172)" xlink:href="#bbburst-shape-2"/><use width="22.851" fill="none" stroke="#ff5d9f" opacity=".592" transform="matrix(0.9906095280055371,0.13672147974860058,-0.13672147974860058,0.9906095280055371,261.1175623275288,24.084539479388752)" xlink:href="#bbburst-shape-9"/><use width="11.962" fill="#9e5cf7" opacity=".886" transform="matrix(0.9849748140517796,-0.1726980477123647,0.1726980477123647,0.9849748140517796,307.0681370351329,55.017456436485475)" xlink:href="#bbburst-shape-2"/><use width="24" fill="none" stroke="#9e5cf7" opacity=".74" transform="matrix(0.7330143395775984,0.6802131856805022,-0.6802131856805022,0.7330143395775984,749.6791519823819,19.453189091379045)" xlink:href="#bbburst-shape-11"/><use width="29.518" fill="none" stroke="#ff8e6f" opacity=".462" transform="matrix(0.9979893676533333,0.0633815592337377,-0.0633815592337377,0.9979893676533333,285.7936964381223,207.01838195470373)" xlink:href="#bbburst-shape-9"/><use width="26.875" fill="none" stroke="#ff5d9f" opacity=".574" transform="matrix(0.9976570231453937,0.06841391794562961,-0.06841391794562961,0.9976570231453937,354.5756818274443,182.3013292098015)" xlink:href="#bbburst-shape-10"/><use width="12.076" fill="none" stroke="#e354d4" opacity=".896" transform="matrix(0.7403917630498311,-0.6721755999796205,0.6721755999796205,0.7403917630498311,173.36257109115417,108.55505584711938)" xlink:href="#bbburst-shape-9"/><use width="33.449" fill="none" stroke="#ff5d9f" opacity=".151" transform="matrix(0.96907274063339,0.24677524868043466,-0.24677524868043466,0.96907274063339,216.42823476358657,282.596037558467)" xlink:href="#bbburst-shape-10"/><use width="30.437" fill="none" stroke="#ff5d9f" opacity=".285" transform="matrix(0.9735213662086935,-0.22859604006884957,0.22859604006884957,0.9735213662086935,452.88939197404056,293.400409270389)" xlink:href="#bbburst-shape-9"/><use width="41.068" fill="none" stroke="#9e5cf7" opacity=".354" transform="matrix(0.7296241631137349,-0.6838483608232032,0.6838483608232032,0.7296241631137349,366.9401337617003,-16.235295155951235)" xlink:href="#bbburst-shape-9"/><use width="33.768" fill="#e354d4" opacity=".357" transform="matrix(0.9296052615790246,-0.3685567224249115,0.3685567224249115,0.9296052615790246,129.64235416465917,-234.4598299886061)" xlink:href="#bbburst-shape-4"/><use width="30.212" fill="none" stroke="#9e5cf7" opacity=".182" transform="matrix(0.9300230890111826,-0.3675010937481654,0.3675010937481654,0.9300230890111826,212.24178348838717,400.874399075784)" xlink:href="#bbburst-shape-13"/><use width="32.043" fill="none" stroke="#ff5d9f" opacity=".657" transform="matrix(0.984855926490762,0.17337475034163027,-0.17337475034163027,0.984855926490762,593.8663482857758,-61.06869364233836)" xlink:href="#bbburst-shape-10"/><use width="30.644" fill="none" stroke="#ff8e6f" opacity=".436" transform="matrix(0.9676565346808831,0.25227134377369326,-0.25227134377369326,0.9676565346808831,254.45482757432168,-95.17718207894615)" xlink:href="#bbburst-shape-13"/><use width="29.101" fill="#e354d4" opacity=".325" transform="matrix(0.9739479802930148,-0.22677154072580932,0.22677154072580932,0.9739479802930148,-7.3543791374882375,-12.660372728166976)" xlink:href="#bbburst-shape-4"/><use width="35.147" fill="none" stroke="#e354d4" opacity=".125" transform="matrix(0.910482484081961,0.41354763471689887,-0.41354763471689887,0.910482484081961,390.4625071481636,388.7009752090315)" xlink:href="#bbburst-shape-10"/><use width="26.089" fill="none" stroke="#ff5d9f" opacity=".525" transform="matrix(0.9297520390743887,0.3681862922991789,-0.3681862922991789,0.9297520390743887,441.9029931204284,-168.8926632605541)" xlink:href="#bbburst-shape-13"/><use width="17.795" fill="none" stroke="#9e5cf7" opacity=".757" transform="matrix(0.9234390236558959,-0.3837451883599919,0.3837451883599919,0.9234390236558959,346.247395647143,51.11173693075551)" xlink:href="#bbburst-shape-10"/><use width="35.803" fill="none" stroke="#ff8e6f" opacity="-.091" transform="matrix(0.7298294670243192,0.6836292482501011,-0.6836292482501011,0.7298294670243192,308.6296328708184,-246.7356973566122)" xlink:href="#bbburst-shape-10"/><use width="17.237" fill="#9e5cf7" opacity=".823" transform="matrix(0.7719425271616641,-0.6356923271200176,0.6356923271200176,0.7719425271616641,125.81360555871743,18.17950617336976)" xlink:href="#bbburst-shape-2"/><use width="31.681" fill="none" stroke="#ff8e6f" opacity=".117" transform="matrix(0.7799938378342559,0.6257871946121848,-0.6257871946121848,0.7799938378342559,339.72634293797034,-184.68743726125962)" xlink:href="#bbburst-shape-14"/><use width="22.681" fill="#ff8e6f" opacity=".588" transform="matrix(0.7520160166356703,0.6591448328883563,-0.6591448328883563,0.7520160166356703,725.6669831317377,263.37301314591986)" xlink:href="#bbburst-shape-2"/></svg>